<?xml version="1.0" encoding="UTF-8" standalone="no"?>
<svg width="107px" height="106px" viewBox="0 0 107 106" version="1.1" xmlns="http://www.w3.org/2000/svg" xmlns:xlink="http://www.w3.org/1999/xlink" xmlns:sketch="http://www.bohemiancoding.com/sketch/ns">
    <!-- Generator: Sketch 3.4.4 (17249) - http://www.bohemiancoding.com/sketch -->
    <title>angry</title>
    <desc>Created with Sketch.</desc>
    <defs>
        <linearGradient x1="50%" y1="0%" x2="50%" y2="100%" id="linearGradient-1">
            <stop stop-color="#F65366" offset="0%"></stop>
            <stop stop-color="#F87168" offset="20.0672743%"></stop>
            <stop stop-color="#FB9568" offset="40.9695095%"></stop>
            <stop stop-color="#FEC96A" offset="70.8034939%"></stop>
            <stop stop-color="#FFDB6B" offset="100%"></stop>
        </linearGradient>
    </defs>
    <g id="FB-emojii-Freebies" stroke="none" stroke-width="1" fill="none" fill-rule="evenodd" sketch:type="MSPage">
        <g sketch:type="MSArtboardGroup" transform="translate(-511.000000, -347.000000)" id="angry">
            <g sketch:type="MSLayerGroup" transform="translate(511.764706, 347.017544)">
                <g id="emoji" transform="translate(0.000000, 0.000000)" sketch:type="MSShapeGroup">
                    <ellipse id="body" fill="url(#linearGradient-1)" cx="52.9411765" cy="52.8947368" rx="52.9411765" ry="52.8947368"></ellipse>
                    <path d="M71.8228652,64.4028843 C68.4749732,64.7756777 64.8805025,64.8708797 61.0383011,64.6450661 C59.74105,64.5688241 58.7512808,63.4563105 58.8275897,62.1601974 C58.9038986,60.8640842 60.017389,59.8751832 61.3146401,59.9514252 C70.1919879,60.473164 77.5297524,59.1587825 83.3991349,56.6658896 C85.1180436,55.9358204 86.5697464,55.1595967 87.758133,54.391602 C88.4402628,53.9507757 88.8661135,53.6273779 89.0388127,53.4763986 C90.0167812,52.6214268 91.5032815,52.7204399 92.359004,53.6975506 C93.2147265,54.6746612 93.1156264,56.1598576 92.1376579,57.0148294 C91.7979388,57.3118229 91.1914802,57.7723773 90.3139367,58.3394896 C88.902868,59.2513926 87.2128061,60.1550666 85.240168,60.9929018 C83.7655325,61.6192213 82.2127355,62.1777416 80.5815692,62.6606308 C80.9605053,63.42296 81.1764706,64.3015527 81.1764706,65.2368421 C81.1764706,68.1581378 79.0695753,70.5263158 76.4705882,70.5263158 C73.8716012,70.5263158 71.7647059,68.1581378 71.7647059,65.2368421 C71.7647059,64.953083 71.7845847,64.6745427 71.8228625,64.4028845 Z M26.3413491,62.9554659 C24.3268487,62.4098885 22.4272502,61.7510696 20.642185,60.9929018 C18.6695468,60.1550666 16.979485,59.2513926 15.5684162,58.3394896 C14.6908728,57.7723773 14.0844142,57.3118229 13.744695,57.0148294 C12.7667265,56.1598576 12.6676265,54.6746612 13.523349,53.6975506 C14.3790714,52.7204399 15.8655717,52.6214268 16.8435403,53.4763986 C17.0162394,53.6273779 17.4420902,53.9507757 18.1242199,54.391602 C19.3126065,55.1595967 20.7643094,55.9358204 22.4832181,56.6658896 C28.3526005,59.1587825 35.6903651,60.473164 44.5677129,59.9514252 C45.864964,59.8751832 46.9784543,60.8640842 47.0547632,62.1601974 C47.1310721,63.4563105 46.1413029,64.5688241 44.8440518,64.6450661 C41.4539787,64.8443072 38.2567636,64.7936382 35.2516152,64.5228865 C35.2796437,64.7563829 35.2941176,64.9947126 35.2941176,65.2368421 C35.2941176,68.1581378 33.1872224,70.5263158 30.5882353,70.5263158 C27.9892482,70.5263158 25.8823529,68.1581378 25.8823529,65.2368421 C25.8823529,64.4198945 26.0471238,63.6462038 26.3413491,62.9554659 Z M52.941176,86.9824561 C62.0376307,86.9824561 68.2352941,86.9824561 69.4117647,84.6315789 C70.5882353,82.2807018 62.0376307,81.1052632 52.941176,81.1052632 C43.8447213,81.1052632 35.2941176,82.2807018 36.4705882,84.6315789 C37.6470588,86.9824561 43.8447213,86.9824561 52.941176,86.9824561 Z" id="expression" fill="#000000"></path>
                </g>
            </g>
        </g>
    </g>
</svg>