<?xml version="1.0" encoding="UTF-8" standalone="no"?>
<svg width="106px" height="106px" viewBox="0 0 106 106" version="1.1" xmlns="http://www.w3.org/2000/svg" xmlns:xlink="http://www.w3.org/1999/xlink" xmlns:sketch="http://www.bohemiancoding.com/sketch/ns">
    <!-- Generator: Sketch 3.4.4 (17249) - http://www.bohemiancoding.com/sketch -->
    <title>like</title>
    <desc>Created with Sketch.</desc>
    <defs></defs>
    <g id="FB-emojii-Freebies" stroke="none" stroke-width="1" fill="none" fill-rule="evenodd" sketch:type="MSPage">
        <g sketch:type="MSArtboardGroup" transform="translate(-100.000000, -99.000000)" id="like">
            <g sketch:type="MSLayerGroup" transform="translate(100.000000, 99.000000)">
                <g id="thumbs" transform="translate(0.000000, 0.000000)" sketch:type="MSShapeGroup">
                    <ellipse id="body" fill="#558DFF" cx="52.9411765" cy="52.8947368" rx="52.9411765" ry="52.8947368"></ellipse>
                    <path d="M23.5294118,47.003114 C23.5294118,45.7070823 24.5772767,44.6563287 25.8781685,44.6563287 L36.4264391,44.6563287 C37.723542,44.6563287 38.7750775,45.7066101 38.7750775,47.003114 L38.7750775,73.8754699 C38.7750775,75.1716196 37.7272125,76.2223732 36.4264391,76.2223732 L25.8781685,76.2223732 C24.5809472,76.2223732 23.5294118,75.1720918 23.5294118,73.8754699 L23.5294118,47.003114 L23.5294118,47.003114 Z M60.7403401,21.3615161 C59.0409044,19.4133373 55.9195692,19.5369206 54.4810933,21.6837535 C54.1989394,22.1047868 54.0208616,23.3832311 54.0208616,23.8540755 L54.0208616,27.1196504 C54.0208616,31.571484 45.1876559,38.8777742 43.0967805,43.6389792 C42.4986094,45.0011109 42.3984406,46.4791536 42.3089281,48.1595095 L42.2934173,48.1636408 L42.2934173,70.365561 C42.2934173,71.017354 42.8235067,71.5459178 43.4774455,71.5459178 L72.7026956,71.5459178 C74.6641567,71.5459178 76.3289004,69.9459442 76.3027333,67.9908013 C76.2874594,66.851639 75.727414,65.8436143 74.8705328,65.213776 C76.414624,64.4484326 77.4757501,62.8596725 77.4757501,61.0238636 C77.4757501,59.4695698 76.7151304,58.0924476 75.5447185,57.2421186 C77.3543872,56.5935126 78.64853,54.8674769 78.64853,52.8400962 C78.64853,51.079476 77.6724172,49.5459565 76.2302708,48.7482714 C77.6616425,47.9564881 78.6338481,46.4399658 78.6482932,44.6958707 C78.6698425,42.1020367 76.4761935,39.9798733 73.8742915,39.9798733 L61.2559844,39.9798733 C62.3967956,36.0728925 62.8803527,32.6807832 63.1819247,30.3712972 C63.63967,26.8638671 62.0233531,22.8324767 60.7403401,21.3615161 L60.7403401,21.3615161 Z" fill="#FFFFFF"></path>
                </g>
            </g>
        </g>
    </g>
</svg>